# xmcd
#
# Track frame offsets:
#	150
#	16756
#	25415
#	42465
#	53521
#	60847
#	72807
#	83131
#	84303
#	90970
#	98876
#	113063
#	131356
#	144252
#	152942
#	168743
#	178178
#	189095
#	204816
#	213295
#	225197
#	238846
#	245206
#	254865
#	267987
#	283868
#	296657
#
# Disc length: 4220 seconds
#
# Revision: 1
# Processed by: cddbd v1.4PL0 Copyright (c) Steve Scherf et al.
# Submitted via: audiograbber 1.81.03
#
DISCID=72107a1b
DTITLE=Halász Judit - Mind
DYEAR=1900
DGENRE=Kid
TTITLE0=Micimackó
TTITLE1=Bóbita
TTITLE2=csudálatos Mary
TTITLE3=Állatkerti útmutató
TTITLE4=csiribiri
TTITLE5=A Luca babám
TTITLE6=Játsszunk együtt!
TTITLE7=A birka-iskola
TTITLE8=Sehallselát Dömötör
TTITLE9=A madárijesztõ
TTITLE10=A napsugár
TTITLE11=Ákom-bákom
TTITLE12=Kalózdal az almaszószról
TTITLE13=Száncsengõ
TTITLE14=Altató
TTITLE15=Zenecirkusz
TTITLE16=A mi kertünk
TTITLE17=Helikoffer
TTITLE18=Vaseszû Mihók
TTITLE19=Neked így, nekem úgy
TTITLE20=Boldog születésnapot!
TTITLE21=Jön a kutya
TTITLE22=Macskapiac
TTITLE23=A 'B-612'-es bolygó
TTITLE24=Mit tehetnék érted
TTITLE25=Az én autóm
TTITLE26=Micimackó és barátai Babits Mihály versét éneklikMajomország
EXTD=
EXTT0=
EXTT1=
EXTT2=
EXTT3=
EXTT4=
EXTT5=
EXTT6=
EXTT7=
EXTT8=
EXTT9=
EXTT10=
EXTT11=
EXTT12=
EXTT13=
EXTT14=
EXTT15=
EXTT16=
EXTT17=
EXTT18=
EXTT19=
EXTT20=
EXTT21=
EXTT22=
EXTT23=
EXTT24=
EXTT25=
EXTT26=
PLAYORDER=
